# xmcd
#
# Track frame offsets: 
#        150
#        22003
#        45235
#        68940
#        95746
#        121718
#        142079
#        170443
#        208976
#
# Disc length: 3261 seconds
#
# Revision: 2
# Processed by: cddbd v1.5.2PL0 Copyright (c) Steve Scherf et al.
# Submitted via: ExactAudioCopy v1.0b3
#
DISCID=810cbb09
DTITLE=Richard Galliano New York Trio - Ruby, My Dear
DYEAR=2005
DGENRE=Jazz
TTITLE0=Ruby, My Dear
TTITLE1=L'Insidieuse
TTITLE2=Historia De Un Amor
TTITLE3=Bohemia After Dark
TTITLE4=Gnossienne N° 1
TTITLE5=Teulada
TTITLE6=Naia
TTITLE7=Spleen
TTITLE8=Waltz For Nicky
EXTD=YEAR: 2005
EXTT0=
EXTT1=
EXTT2=
EXTT3=
EXTT4=
EXTT5=
EXTT6=
EXTT7=
EXTT8=
PLAYORDER=
